# xmcd CD database file
#
# Track frame offsets:
#	150
#	21698
#	35762
#	55905
#	91265
#	109159
#	124465
#
# Disc length: 2445 seconds
#
# Revision: 0
# Processed by: cddbd v1.5.1PL0 Copyright (c) Steve Scherf et al.
# Submitted via: CDex 1.51
#
DISCID=64098b07
DTITLE=Jimi Hendrix - In The West
DYEAR=1972
DGENRE=Blues
TTITLE0=Johnny B Goode
TTITLE1=Lover Man
TTITLE2=Blue Suede Shoes
TTITLE3=Voodoo Child (Slight Return)
TTITLE4=The Queen/Sgt Pepper's Lonely Heart Club Band
TTITLE5=Little Wing
TTITLE6=Red House
EXTD=YEAR: 1972
EXTT0=
EXTT1=
EXTT2=
EXTT3=
EXTT4=
EXTT5=
EXTT6=
PLAYORDER=
